<?xml version="1.0" encoding="utf-8"?>
<!-- Generator: Adobe Illustrator 25.1.0, SVG Export Plug-In . SVG Version: 6.00 Build 0)  -->
<svg version="1.1" id="Layer_1" xmlns="http://www.w3.org/2000/svg" xmlns:xlink="http://www.w3.org/1999/xlink" x="0px" y="0px"
	 viewBox="0 0 90.6 91.8" style="enable-background:new 0 0 90.6 91.8;" xml:space="preserve">
<style type="text/css">
	.st0{opacity:0.5;fill:#B2E8CD;stroke:#3C7760;stroke-width:2.27;stroke-miterlimit:10;enable-background:new    ;}
	.st1{fill:#FFFFFF;stroke:#3C7760;stroke-width:1.91;stroke-miterlimit:10;}
	.st2{fill:#3C7760;}
</style>
<g id="Layer_2_1_">
	<g id="Character_1">
		<path class="st0" d="M24.9,26.1h40.3c0.6,0,1.1,0.5,1.1,1.1V58c0,0.6-0.5,1.1-1.1,1.1H24.9c-0.6,0-1.1-0.5-1.1-1.1V27.1
			C23.8,26.5,24.3,26.1,24.9,26.1z"/>
		<path class="st0" d="M13.8,45.2h62.6c0.6,0,1.1,0.5,1.1,1.1V81c0,0.6-0.5,1.1-1.1,1.1H13.8c-0.6,0-1.1-0.5-1.1-1.1V46.3
			C12.7,45.7,13.1,45.2,13.8,45.2z"/>
		<path class="st0" d="M5.4,66.8h79.3c0.6,0,1.1,0.5,1.1,1.1v21.7c0,0.6-0.5,1.1-1.1,1.1H5.4c-0.6,0-1.1-0.5-1.1-1.1V67.8
			C4.3,67.2,4.8,66.8,5.4,66.8z"/>
		<path class="st1" d="M8.7,66.8c0,2.1-1.7,3.8-3.9,3.8S1,68.9,1,66.7c0-2.1,1.7-3.8,3.8-3.8C6.9,62.9,8.7,64.6,8.7,66.8
			C8.7,66.7,8.7,66.7,8.7,66.8z"/>
		<path class="st1" d="M18.8,66.8c0,2.1-1.7,3.9-3.9,3.9s-3.9-1.7-3.9-3.9c0-2.1,1.7-3.9,3.9-3.9S18.8,64.6,18.8,66.8L18.8,66.8z"/>
		<path class="st1" d="M28.9,66.8c0,2.1-1.7,3.9-3.9,3.9s-3.9-1.7-3.9-3.9s1.7-3.9,3.9-3.9S28.9,64.6,28.9,66.8L28.9,66.8z"/>
		<path class="st1" d="M39,66.8c0,2.1-1.7,3.9-3.9,3.9c-2.1,0-3.9-1.7-3.9-3.9c0-2.1,1.7-3.9,3.9-3.9c0,0,0,0,0,0
			C37.3,62.9,39,64.6,39,66.8C39,66.7,39,66.7,39,66.8z"/>
		<path class="st1" d="M49.2,66.8c0,2.1-1.7,3.8-3.9,3.8s-3.8-1.7-3.8-3.9c0-2.1,1.7-3.8,3.8-3.8C47.4,62.9,49.2,64.6,49.2,66.8
			C49.2,66.7,49.2,66.7,49.2,66.8z"/>
		<path class="st1" d="M59.3,66.8c0,2.1-1.7,3.8-3.9,3.8s-3.8-1.7-3.8-3.9c0-2.1,1.7-3.8,3.8-3.8C57.5,62.9,59.3,64.6,59.3,66.8
			C59.3,66.7,59.3,66.7,59.3,66.8z"/>
		<path class="st1" d="M69.4,66.8c0,2.1-1.7,3.9-3.9,3.9s-3.9-1.7-3.9-3.9s1.7-3.9,3.9-3.9C67.7,62.9,69.4,64.6,69.4,66.8L69.4,66.8
			z"/>
		<path class="st1" d="M79.5,66.8c0,2.1-1.7,3.9-3.9,3.9c-2.1,0-3.9-1.7-3.9-3.9c0-2.1,1.7-3.9,3.9-3.9c0,0,0,0,0,0
			C77.8,62.9,79.5,64.6,79.5,66.8z"/>
		<path class="st1" d="M89.6,66.8c0,2.1-1.7,3.8-3.9,3.8s-3.8-1.7-3.8-3.9c0-2.1,1.7-3.8,3.8-3.8C87.9,62.9,89.6,64.6,89.6,66.8
			C89.6,66.7,89.6,66.7,89.6,66.8z"/>
		<path class="st1" d="M16.4,45.2c0,2.1-1.7,3.9-3.9,3.9s-3.9-1.7-3.9-3.9c0-2.1,1.7-3.9,3.9-3.9c0,0,0,0,0,0
			C14.6,41.4,16.4,43.1,16.4,45.2C16.4,45.2,16.4,45.2,16.4,45.2z"/>
		<path class="st1" d="M25.6,45.2c0,2.1-1.7,3.9-3.9,3.9s-3.9-1.7-3.9-3.9c0-2.1,1.7-3.9,3.9-3.9C23.9,41.4,25.6,43.1,25.6,45.2
			C25.7,45.2,25.7,45.2,25.6,45.2z"/>
		<circle class="st1" cx="31.1" cy="45.2" r="3.8"/>
		<circle class="st1" cx="40.3" cy="45.2" r="3.8"/>
		<circle class="st1" cx="49.6" cy="45.2" r="3.8"/>
		<circle class="st1" cx="58.9" cy="45.2" r="3.8"/>
		<path class="st1" d="M72,45.2c0,2.1-1.7,3.9-3.9,3.9c-2.1,0-3.9-1.7-3.9-3.9c0-2.1,1.7-3.9,3.9-3.9c0,0,0,0,0,0
			C70.3,41.4,72,43.1,72,45.2C72,45.2,72,45.2,72,45.2z"/>
		<path class="st1" d="M81.3,45.2c0,2.1-1.7,3.9-3.9,3.9s-3.9-1.7-3.9-3.9c0-2.1,1.7-3.9,3.9-3.9C79.6,41.4,81.3,43.1,81.3,45.2
			C81.3,45.2,81.3,45.2,81.3,45.2z"/>
		<path class="st1" d="M27.3,26.1c0,2.1-1.7,3.9-3.9,3.9s-3.9-1.7-3.9-3.9s1.7-3.9,3.9-3.9S27.3,23.9,27.3,26.1L27.3,26.1z"/>
		<path class="st1" d="M38,26.1c0,2.1-1.7,3.9-3.9,3.9c-2.1,0-3.9-1.7-3.9-3.9s1.7-3.9,3.9-3.9c0,0,0,0,0,0
			C36.3,22.2,38,23.9,38,26.1z"/>
		<path class="st1" d="M48.7,26.1c0,2.1-1.7,3.8-3.9,3.8c-2.1,0-3.8-1.7-3.8-3.9c0-2.1,1.7-3.8,3.8-3.8C47,22.2,48.7,23.9,48.7,26.1
			C48.7,26.1,48.7,26.1,48.7,26.1z"/>
		<path class="st1" d="M59.5,26.1c0,2.1-1.7,3.9-3.9,3.9c-2.1,0-3.9-1.7-3.9-3.9c0-2.1,1.7-3.9,3.9-3.9l0,0
			C57.7,22.2,59.5,23.9,59.5,26.1z"/>
		<path class="st1" d="M70.2,26.1c0,2.1-1.7,3.9-3.9,3.9c-2.1,0-3.9-1.7-3.9-3.9s1.7-3.9,3.9-3.9c0,0,0,0,0,0
			C68.4,22.2,70.2,23.9,70.2,26.1z"/>
		<path class="st2" d="M50,0c-0.3,0-0.6,0-0.8,0C47,0,46,0.9,44.9,2.3C43.7,0.9,42.8,0,40.7,0c-0.3,0-0.6,0-0.8,0
			c-1.8,0.2-3.9,1.9-4.1,5v1.1c0.2,3,2.5,6.8,9.2,11.4c6.7-4.7,9-8.4,9.2-11.4V5C53.8,1.9,51.8,0.2,50,0z M52.1,6
			c-0.2,2.6-2.7,5.7-7.2,9.1C40.4,11.7,38,8.6,37.7,6V5.1C37.9,3,39.2,2.1,40,2c0.2,0,0.4,0,0.6,0c1.2,0,1.7,0.4,2.7,1.5l1.5,1.8
			l1.5-1.8c1-1.2,1.5-1.6,2.7-1.6c0.2,0,0.4,0,0.6,0c0.8,0.1,2.1,1,2.3,3.1L52.1,6z"/>
	</g>
</g>
</svg>
