<?xml version="1.0" encoding="utf-8"?>
<!-- Generator: Adobe Illustrator 25.1.0, SVG Export Plug-In . SVG Version: 6.00 Build 0)  -->
<svg version="1.1" id="Layer_1" xmlns="http://www.w3.org/2000/svg" xmlns:xlink="http://www.w3.org/1999/xlink" x="0px" y="0px"
	 viewBox="0 0 104.7 87.6" style="enable-background:new 0 0 104.7 87.6;" xml:space="preserve">
<style type="text/css">
	
		.st0{opacity:0.5;fill:#B2E8C8;stroke:#3B775A;stroke-width:3;stroke-linecap:round;stroke-linejoin:round;enable-background:new    ;}
	.st1{fill:none;stroke:#3B775A;stroke-width:3;stroke-linecap:round;stroke-linejoin:round;}
	.st2{fill:none;stroke:#3B775A;stroke-width:0.81;stroke-linecap:round;stroke-linejoin:round;}
	.st3{fill:#FFFFFF;stroke:#3B775A;stroke-width:3;stroke-linecap:round;stroke-linejoin:round;}
	.st4{fill:none;stroke:#3B775A;stroke-width:2;stroke-linecap:round;stroke-linejoin:round;}
</style>
<g id="Layer_2_1_">
	<g id="Character_1">
		<path class="st0" d="M60.1,28.8c-2.7-16.1-18-26.9-34-24.2s-26.9,18-24.2,34L60.1,28.8z"/>
		<line class="st1" x1="31.2" y1="34.5" x2="38.9" y2="80.4"/>
		<path class="st0" d="M26.1,4.6c0,0-13.2,12.7-8.2,31.3"/>
		<path class="st0" d="M27,4.4c0,0,16.6,7.7,18,26.9"/>
		<line class="st1" x1="26.1" y1="4.6" x2="25.6" y2="1.5"/>
		<path class="st1" d="M5.8,76c0,0,15.6-12.6,42.8-5.8c21.1,5.2,43.9,7.3,51.7,0"/>
		<path class="st2" d="M73.5,9.7c2.3-1.6,5.4-1.1,7,1.2c0.6,0.8,0.9,1.8,0.9,2.8"/>
		<path class="st2" d="M89.3,9.7c-2.3-1.6-5.4-1.1-7,1.2c-0.6,0.8-0.9,1.8-0.9,2.8"/>
		<path class="st2" d="M88.5,19.8c2.3-1.6,5.4-1.1,7,1.2c0.6,0.8,0.9,1.8,0.9,2.8"/>
		<path class="st2" d="M104.3,19.8c-2.3-1.6-5.4-1.1-7,1.2c-0.6,0.8-0.9,1.8-0.9,2.8"/>
		<polygon class="st0" points="83.3,83.7 66.8,83.7 64.8,60.4 85.3,60.4 		"/>
		<rect x="63.1" y="58.5" class="st3" width="23.9" height="6.1"/>
		<line class="st1" x1="78.8" y1="58.1" x2="82.2" y2="47.9"/>
		<rect x="80.4" y="39.8" transform="matrix(0.312 -0.9501 0.9501 0.312 14.1849 110.1795)" class="st1" width="5.6" height="11"/>
		<path class="st4" d="M33.5,83.2c2-1.2,4.3-1.8,6.6-1.8c2.1,0,4.1,0.4,5.9,1.4"/>
		<path class="st4" d="M76.9,86.6c2-1.2,4.3-1.8,6.6-1.8c2,0,4.1,0.4,5.9,1.3"/>
	</g>
</g>
</svg>
