<?xml version="1.0" encoding="utf-8"?>
<!-- Generator: Adobe Illustrator 25.1.0, SVG Export Plug-In . SVG Version: 6.00 Build 0)  -->
<svg version="1.1" id="Layer_1" xmlns="http://www.w3.org/2000/svg" xmlns:xlink="http://www.w3.org/1999/xlink" x="0px" y="0px"
	 viewBox="0 0 115.9 97.6" style="enable-background:new 0 0 115.9 97.6;" xml:space="preserve">
<style type="text/css">
	.st0{fill:none;stroke:#3B7759;stroke-width:2.43;stroke-linecap:round;stroke-linejoin:round;}
	
		.st1{opacity:0.5;fill:#B2E8C7;stroke:#3B7759;stroke-width:2.43;stroke-linecap:round;stroke-linejoin:round;enable-background:new    ;}
	.st2{fill:#FFFFFF;stroke:#3B7759;stroke-width:2.43;stroke-linecap:round;stroke-linejoin:round;}
	.st3{fill:#FFFFFF;stroke:#3B7759;stroke-width:2.72;stroke-linecap:round;stroke-linejoin:round;}
	
		.st4{opacity:0.5;fill:#B2E8C7;stroke:#3B7759;stroke-width:1.82;stroke-linecap:round;stroke-linejoin:round;enable-background:new    ;}
</style>
<g id="Layer_2_1_">
	<g id="Character_1">
		<polygon class="st0" points="64.5,21 64.5,21 64.5,21 64.5,21 64.5,21 64.5,21 64.5,21 64.5,21 		"/>
		<path class="st1" d="M4.1,26.7h74.5c1.6,0,2.9,1.3,2.9,2.9v50c0,1.6-1.3,2.9-2.9,2.9H4.1c-1.6,0-2.9-1.3-2.9-2.9v-50
			C1.2,28,2.5,26.7,4.1,26.7z"/>
		<rect x="28" y="18.5" class="st0" width="26.8" height="8.2"/>
		<path class="st2" d="M60.6,54.9c0,10.6-8.6,19.2-19.2,19.2s-19.2-8.6-19.2-19.2c0-10.6,8.6-19.2,19.2-19.2S60.6,44.3,60.6,54.9
			C60.6,54.9,60.6,54.9,60.6,54.9z"/>
		<path class="st2" d="M54,54.9c0,6.9-5.6,12.6-12.6,12.6c-6.9,0-12.6-5.6-12.6-12.6c0-6.9,5.6-12.6,12.5-12.6
			C48.3,42.3,54,48,54,54.9C54,54.9,54,54.9,54,54.9z"/>
		<path class="st2" d="M76.2,38.6c0,3.2-2.6,5.9-5.8,5.9s-5.8-2.6-5.8-5.8s2.6-5.9,5.8-5.9l0,0C73.6,32.8,76.2,35.4,76.2,38.6z"/>
		<line class="st0" x1="41.6" y1="12" x2="41.6" y2="1.2"/>
		<line class="st0" x1="30.8" y1="12" x2="27.1" y2="1.9"/>
		<line class="st0" x1="52.6" y1="12" x2="56.3" y2="1.9"/>
		
			<rect x="68.1" y="50.4" transform="matrix(0.3244 -0.9459 0.9459 0.3244 -5.8599 131.6077)" class="st3" width="42.2" height="39.1"/>
		
			<rect x="77" y="51.6" transform="matrix(0.3244 -0.9459 0.9459 0.3244 -2.7013 130.6708)" class="st4" width="26.2" height="31.2"/>
	</g>
</g>
</svg>
