<svg xmlns="http://www.w3.org/2000/svg" viewBox="0 0 48.93 96.58"><defs><style>.cls-1{fill:#fff;}.cls-1,.cls-2,.cls-3,.cls-4,.cls-5,.cls-6{stroke:#773b6d;}.cls-1,.cls-3,.cls-4,.cls-5,.cls-6{stroke-linecap:round;stroke-linejoin:round;}.cls-1,.cls-2,.cls-3,.cls-4{stroke-width:2.5px;}.cls-2,.cls-4,.cls-6{fill:#e8b2e5;opacity:0.5;}.cls-2{stroke-miterlimit:10;}.cls-3,.cls-5{fill:none;}.cls-5{stroke-width:0.83px;}.cls-6{stroke-width:1.67px;}</style></defs><g id="Layer_2" data-name="Layer 2"><g id="Character_1" data-name="Character 1"><path class="cls-1" d="M30.8,50s12.3,27,7.8,45.33"/><path class="cls-1" d="M31.38,53.55c3.89-1.16,5.5-7.29,3.6-13.7s-6.6-10.67-10.49-9.52S19,37.62,20.89,44,27.49,54.7,31.38,53.55Z"/><polyline class="cls-1" points="20.89 44.03 1.25 37.23 9.93 32.84"/><polyline class="cls-1" points="34.98 39.85 47.68 23.45 37.16 22.64"/><path class="cls-2" d="M2.58,11.1c.27-2.48,5.79-6,13.09-8.15C23.61.6,30.64.7,31.38,3.19s-5.1,6.41-13,8.77-14.95,2.25-15.7-.23a14.54,14.54,0,0,0,.55,2.81L7,27.36a15.4,15.4,0,1,0,29.53-8.77L32.72,5.77"/><path class="cls-2" d="M2.63,11.72h0c0-.21,0-.42-.06-.63A1.62,1.62,0,0,0,2.63,11.72Z"/><path class="cls-2" d="M18.34,12c7.94-2.36,13.78-6.29,13-8.77S23.61.6,15.67,3C8.37,5.12,2.85,8.62,2.58,11.1c0,.21,0,.42.06.63C3.39,14.21,10.42,14.31,18.34,12Z"/><path class="cls-3" d="M17.49,12.2s13.46-8,6.65-7.5C18.42,5.13,10.3,8.38,10.3,8.38"/><path class="cls-4" d="M27.31,60.18a8.51,8.51,0,0,1,1.32,17c-4.69.36-20.39-7-20.39-7S22.62,60.54,27.31,60.18Z"/><line class="cls-3" x1="36.45" y1="68" x2="22.34" y2="69.1"/><line class="cls-5" x1="33.54" y1="58.2" x2="30.61" y2="57.34"/><line class="cls-5" x1="35.25" y1="64.26" x2="37.91" y2="61.76"/><line class="cls-5" x1="39.46" y1="82.57" x2="36.52" y2="81.12"/><line class="cls-5" x1="39.58" y1="87.21" x2="42.17" y2="85.21"/><path class="cls-6" d="M3.84,16.26s7,4.39,20.06-1.68c0,0-2.1,12.51,4.86,22.11"/></g></g></svg>