<svg xmlns="http://www.w3.org/2000/svg" viewBox="0 0 105.87 104.29"><defs><style>.cls-1,.cls-3,.cls-5{fill:none;}.cls-1,.cls-2,.cls-4{stroke:#773b6d;}.cls-1,.cls-2,.cls-3,.cls-4,.cls-5{stroke-linecap:round;stroke-linejoin:round;stroke-width:2.7px;}.cls-2{fill:#fff;}.cls-3{stroke:#e8b2e5;}.cls-4{fill:#e8b2e5;opacity:0.5;}.cls-5{stroke:#fff;}</style></defs><g id="Layer_2" data-name="Layer 2"><g id="Character_1" data-name="Character 1"><polygon class="cls-1" points="59.74 49.51 53.09 51.55 46.45 49.51 53.09 42.86 59.74 49.51"/><path class="cls-2" d="M70.92,22.7c0,11.79-8,21.35-17.83,21.35S35.27,34.49,35.27,22.7s8-21.35,17.82-21.35S70.92,10.91,70.92,22.7Z"/><line class="cls-1" x1="53.09" y1="44.05" x2="53.09" y2="101.97"/><path class="cls-3" d="M54.83,6C60.54,8.11,65,14.14,66.22,21.67a27.08,27.08,0,0,1,.37,4.45"/><polygon class="cls-1" points="80.94 57.98 74.04 57.09 68.85 52.46 77.65 49.18 80.94 57.98"/><path class="cls-4" d="M102.25,38.24c-4.9,10.73-16.13,16.11-25.09,12s-12.24-16.1-7.34-26.83S86,7.33,94.9,11.42,107.14,27.52,102.25,38.24Z"/><line class="cls-1" x1="77.16" y1="50.26" x2="53.09" y2="102.94"/><path class="cls-5" d="M94.57,16.32c4.3,4.34,5.81,11.66,3.83,19a27.86,27.86,0,0,1-1.51,4.2"/><polygon class="cls-1" points="24.93 57.98 31.82 57.09 37.02 52.46 28.21 49.18 24.93 57.98"/><path class="cls-4" d="M3.62,38.24c4.9,10.73,16.13,16.11,25.09,12S41,34.16,36,23.43,19.92,7.33,11,11.42-1.28,27.52,3.62,38.24Z"/><line class="cls-1" x1="28.71" y1="50.26" x2="52.77" y2="102.94"/><path class="cls-5" d="M11.3,16.32C7,20.66,5.49,28,7.47,35.36A26.81,26.81,0,0,0,9,39.56"/></g></g></svg>