<svg xmlns="http://www.w3.org/2000/svg" viewBox="0 0 90.6 91.78"><defs><style>.cls-1{fill:#e8b2e5;stroke-width:2.27px;opacity:0.5;}.cls-1,.cls-2{stroke:#773b6d;stroke-miterlimit:10;}.cls-2{fill:#fff;stroke-width:1.91px;}.cls-3{fill:#773b6d;}</style></defs><g id="Layer_2" data-name="Layer 2"><g id="Character_1" data-name="Character 1"><rect class="cls-1" x="23.8" y="26.06" width="42.52" height="33.03" rx="1.09"/><rect class="cls-1" x="12.66" y="45.24" width="64.8" height="36.8" rx="1.09"/><rect class="cls-1" x="4.32" y="66.75" width="81.47" height="23.9" rx="1.09"/><path class="cls-2" d="M8.66,66.75a3.85,3.85,0,1,1-3.85-3.86A3.85,3.85,0,0,1,8.66,66.75Z"/><path class="cls-2" d="M18.79,66.75a3.86,3.86,0,1,1-3.86-3.86A3.86,3.86,0,0,1,18.79,66.75Z"/><path class="cls-2" d="M28.91,66.75a3.86,3.86,0,1,1-3.86-3.86A3.86,3.86,0,0,1,28.91,66.75Z"/><path class="cls-2" d="M39,66.75a3.86,3.86,0,1,1-3.85-3.86A3.85,3.85,0,0,1,39,66.75Z"/><path class="cls-2" d="M49.15,66.75a3.85,3.85,0,1,1-3.85-3.86A3.85,3.85,0,0,1,49.15,66.75Z"/><path class="cls-2" d="M59.27,66.75a3.85,3.85,0,1,1-3.85-3.86A3.85,3.85,0,0,1,59.27,66.75Z"/><path class="cls-2" d="M69.4,66.75a3.86,3.86,0,1,1-3.86-3.86A3.86,3.86,0,0,1,69.4,66.75Z"/><path class="cls-2" d="M79.52,66.75a3.86,3.86,0,1,1-3.85-3.86A3.86,3.86,0,0,1,79.52,66.75Z"/><path class="cls-2" d="M89.64,66.75a3.85,3.85,0,1,1-3.85-3.86A3.85,3.85,0,0,1,89.64,66.75Z"/><path class="cls-2" d="M16.37,45.24a3.86,3.86,0,1,1-3.85-3.86A3.85,3.85,0,0,1,16.37,45.24Z"/><path class="cls-2" d="M25.65,45.24a3.86,3.86,0,1,1-3.86-3.86A3.85,3.85,0,0,1,25.65,45.24Z"/><circle class="cls-2" cx="31.07" cy="45.24" r="3.85"/><circle class="cls-2" cx="40.35" cy="45.24" r="3.85"/><circle class="cls-2" cx="49.62" cy="45.24" r="3.85"/><circle class="cls-2" cx="58.9" cy="45.24" r="3.85"/><path class="cls-2" d="M72,45.24a3.86,3.86,0,1,1-3.85-3.86A3.85,3.85,0,0,1,72,45.24Z"/><path class="cls-2" d="M81.31,45.24a3.86,3.86,0,1,1-3.86-3.86A3.85,3.85,0,0,1,81.31,45.24Z"/><path class="cls-2" d="M27.32,26.06a3.86,3.86,0,1,1-3.86-3.86A3.86,3.86,0,0,1,27.32,26.06Z"/><path class="cls-2" d="M38,26.06a3.86,3.86,0,1,1-3.85-3.86A3.86,3.86,0,0,1,38,26.06Z"/><path class="cls-2" d="M48.74,26.06a3.85,3.85,0,1,1-3.85-3.86A3.85,3.85,0,0,1,48.74,26.06Z"/><path class="cls-2" d="M59.46,26.06A3.86,3.86,0,1,1,55.6,22.2,3.86,3.86,0,0,1,59.46,26.06Z"/><path class="cls-2" d="M70.17,26.06a3.86,3.86,0,1,1-3.85-3.86A3.86,3.86,0,0,1,70.17,26.06Z"/><path class="cls-3" d="M50,0a8.2,8.2,0,0,0-.83,0C47,0,46,.9,44.89,2.26,43.74.9,42.75,0,40.66,0a8.07,8.07,0,0,0-.83,0C38,.22,35.94,1.87,35.69,5V6.09c.23,3,2.52,6.76,9.2,11.44,6.68-4.68,9-8.42,9.2-11.44V5C53.84,1.87,51.75.22,50,0Zm2.13,6c-.25,2.65-2.66,5.69-7.19,9.05C40.36,11.69,38,8.65,37.7,6V5.12c.2-2.11,1.49-3,2.32-3.07a4.88,4.88,0,0,1,.64,0c1.2,0,1.7.37,2.69,1.55l1.54,1.83,1.54-1.83C47.42,2.38,47.92,2,49.12,2a4.74,4.74,0,0,1,.63,0c.84.08,2.13,1,2.33,3.07Z"/></g></g></svg>