<?xml version="1.0" encoding="utf-8"?>
<!-- Generator: Adobe Illustrator 25.1.0, SVG Export Plug-In . SVG Version: 6.00 Build 0)  -->
<svg version="1.1" id="Layer_1" xmlns="http://www.w3.org/2000/svg" xmlns:xlink="http://www.w3.org/1999/xlink" x="0px" y="0px"
	 viewBox="0 0 62.2 91.8" style="enable-background:new 0 0 62.2 91.8;" xml:space="preserve">
<style type="text/css">
	.st0{fill:#FFFFFF;stroke:#367755;stroke-width:2.65;stroke-miterlimit:10;}
	.st1{opacity:0.5;fill:#B2E8C5;stroke:#367755;stroke-width:2.65;stroke-miterlimit:10;enable-background:new    ;}
	.st2{opacity:0.5;fill:none;stroke:#367755;stroke-width:1.77;stroke-miterlimit:10;enable-background:new    ;}
</style>
<g id="Layer_2_1_">
	<g id="Character_1">
		<path class="st0" d="M30.9,30.9C14.4,31,1.2,44.4,1.3,60.9s13.5,29.7,30,29.6c16.5-0.1,29.7-13.5,29.6-30c0,0,0,0,0,0
			C60.8,44,47.3,30.7,30.9,30.9z M31.3,81C20,81.1,10.8,72,10.7,60.8s9-20.5,20.2-20.5c11.3-0.1,20.5,9,20.5,20.2c0,0,0,0,0,0
			C51.6,71.7,42.5,80.9,31.3,81z"/>
		<polygon class="st1" points="44,1.3 52.3,18.6 30.9,30 9.3,18.9 17.4,1.5 		"/>
		<line class="st2" x1="9.3" y1="18.9" x2="52.3" y2="18.6"/>
		<line class="st2" x1="30.9" y1="30" x2="30.8" y2="18.8"/>
		<line class="st2" x1="30.8" y1="18.8" x2="17.4" y2="1.5"/>
		<line class="st2" x1="30.8" y1="18.8" x2="44" y2="1.3"/>
	</g>
</g>
</svg>
