<svg xmlns="http://www.w3.org/2000/svg" viewBox="0 0 104.71 87.58"><defs><style>.cls-1{fill:#e8b2e5;opacity:0.5;}.cls-1,.cls-2,.cls-3,.cls-4,.cls-5{stroke:#773b6d;stroke-linecap:round;stroke-linejoin:round;}.cls-1,.cls-2,.cls-4{stroke-width:3px;}.cls-2,.cls-3,.cls-5{fill:none;}.cls-3{stroke-width:0.81px;}.cls-4{fill:#fff;}.cls-5{stroke-width:2px;}</style></defs><g id="Layer_2" data-name="Layer 2"><g id="Character_1" data-name="Character 1"><path class="cls-1" d="M60.14,28.76A29.52,29.52,0,0,0,1.92,38.61Z"/><line class="cls-2" x1="31.16" y1="34.49" x2="38.93" y2="80.38"/><path class="cls-1" d="M26.1,4.58S12.9,17.27,17.93,35.9"/><path class="cls-1" d="M27,4.43s16.64,7.65,18,26.9"/><line class="cls-2" x1="26.1" y1="4.58" x2="25.58" y2="1.5"/><path class="cls-2" d="M5.8,76s15.56-12.6,42.78-5.83c21.06,5.24,43.89,7.33,51.67,0"/><path class="cls-3" d="M73.47,9.66a5,5,0,0,1,7.89,4"/><path class="cls-3" d="M89.31,9.66a5,5,0,0,0-7.89,4"/><path class="cls-3" d="M88.46,19.78a5,5,0,0,1,7.89,4"/><path class="cls-3" d="M104.3,19.78a5,5,0,0,0-7.89,4"/><polygon class="cls-1" points="83.29 83.73 66.8 83.73 64.8 60.4 85.29 60.4 83.29 83.73"/><rect class="cls-4" x="63.1" y="58.55" width="23.89" height="6.11"/><line class="cls-2" x1="78.82" y1="58.1" x2="82.17" y2="47.89"/><rect class="cls-2" x="80.39" y="39.8" width="5.56" height="11" transform="translate(14.18 110.18) rotate(-71.82)"/><path class="cls-5" d="M33.48,83.16a12,12,0,0,1,6.58-1.78A12.53,12.53,0,0,1,46,82.74"/><path class="cls-5" d="M76.93,86.58a12,12,0,0,1,6.58-1.77,12.65,12.65,0,0,1,5.89,1.35"/></g></g></svg>