<svg xmlns="http://www.w3.org/2000/svg" viewBox="0 0 115.89 97.57"><defs><style>.cls-1{fill:none;}.cls-1,.cls-2,.cls-3,.cls-4,.cls-5{stroke:#773b6d;stroke-linecap:round;stroke-linejoin:round;}.cls-1,.cls-2,.cls-3{stroke-width:2.43px;}.cls-2,.cls-5{fill:#e8b2e5;opacity:0.5;}.cls-3,.cls-4{fill:#fff;}.cls-4{stroke-width:2.72px;}.cls-5{stroke-width:1.82px;}</style></defs><g id="Layer_2" data-name="Layer 2"><g id="Character_1" data-name="Character 1"><rect class="cls-1" x="64.5" y="21.02" width="10.81" height="14.67" rx="2.91"/><rect class="cls-2" x="1.21" y="26.66" width="80.35" height="55.82" rx="2.91"/><rect class="cls-1" x="27.99" y="18.5" width="26.79" height="8.16"/><path class="cls-3" d="M60.63,54.93A19.24,19.24,0,1,1,41.39,35.69,19.24,19.24,0,0,1,60.63,54.93Z"/><path class="cls-3" d="M54,54.93A12.57,12.57,0,1,1,41.39,42.37,12.57,12.57,0,0,1,54,54.93Z"/><path class="cls-3" d="M76.2,38.63a5.85,5.85,0,1,1-5.85-5.85A5.85,5.85,0,0,1,76.2,38.63Z"/><line class="cls-1" x1="41.59" y1="12.03" x2="41.59" y2="1.21"/><line class="cls-1" x1="30.79" y1="12.03" x2="27.09" y2="1.87"/><line class="cls-1" x1="52.57" y1="12.03" x2="56.27" y2="1.87"/><rect class="cls-4" x="68.1" y="50.39" width="42.22" height="39.05" transform="translate(-5.87 131.61) rotate(-71.07)"/><rect class="cls-5" x="77.05" y="51.65" width="26.16" height="31.17" transform="translate(-2.71 130.67) rotate(-71.07)"/></g></g></svg>